<svg version="1.2" baseProfile="tiny" xmlns="http://www.w3.org/2000/svg" viewBox="0 0 500 500">
  <path d="M217.5 131c36-1.3 72 0 108 2.3 3.8.3 7.6.3 11.3 1.1 2 .5 4.2 1.3 5.4 3.1 1.1 2 1.1 4.3 1.4 6.5.9 10.8 1.1 21.6 1.9 32.4-1.6.2-3.1 0-4.7-.1-27.7-1.4-55.5-2.6-83.2-2.7-14.4 0-28.8-.1-43.1.6-3.5.5-7.4 1.7-9.4 4.8 10.9 1.9 21.7 4 32.6 6 36 6.7 72 13.3 108.1 20.1v20.5c-20.3-3.4-40.5-7-60.7-10.4-43.5-7.5-87.1-15.1-130.6-22.6.1-7.6.4-15.2.6-22.8.3-6 .1-12.1 1.5-18 .9-4.2 2.6-8.3 5.8-11.3 5.4-5.4 13.3-6.9 20.6-7.7 11.3-1 22.9-1.4 34.5-1.8zM154.1 202.6c62.4 11.5 124.8 23.1 187.1 34.8 1.4.3 2.8.4 4.1.9l.2.4c-.3 10.2-.5 20.5-.9 30.7-.2 6.3-.9 12.9-4.2 18.5-3.5 5.8-10 8.9-16.4 10.1-9.5 1.8-19.1 1.9-28.7 2.4-41.2 1.9-82.6.8-123.7-2-3.3-.2-6.7-.3-9.8-1.2-1.7-.5-3.4-1.4-4.3-2.9-1-2-1.1-4.3-1.3-6.5-.9-11.9-1.4-23.9-2-35.9 21.2 1.3 42.5 2.1 63.8 2.6 20.5.3 41.1.3 61.6.5 4.4.2 9.2-.7 12.6-3.8.5-.6 1.3-1.1 1.2-1.9-9.3-1.4-18.5-3.1-27.7-4.6-37.2-6.4-74.4-12.7-111.6-19.1v-23zM346.1 346.2c22.6-.1 45.2 0 67.8-.1.2 2.9.1 5.9 0 8.9h-28v36.3H374c-.2-11 0-21.9-.1-32.9-.1-1.2.4-2.5-.3-3.5-2 .3-4 .1-5.9.1H346c.1-3 .1-5.9.1-8.8zM91.2 347.7c3.1-1.6 6.8-1.6 10.2-1.6 18 0 36-.1 54 0v8.6c-18.3.2-36.6 0-54.9.1-1.5-.1-3.4.5-3.7 2.2-.2 1.3-.2 2.9.9 3.8 1 .9 2.5.9 3.7 1 14.9 1.2 29.8 2.5 44.7 3.7 3.5.4 7.3 1.1 9.8 3.6 2.5 2.5 3 6.2 2.9 9.5 0 3.4-.8 7.1-3.4 9.5-2.4 2-5.5 3-8.6 2.8-19.6 0-39.3.1-58.9-.1-.1-2.8-.2-5.7.1-8.5 18.4.1 36.9 0 55.3 0 1.3 0 2.6-.1 3.6-1 1.1-1.4 1.2-3.4.5-4.9-.9-1.4-2.6-1.6-4-1.7-13.1-1.1-26.1-2.2-39.2-3.3-4-.4-8.2-.4-12.1-1.8-2.4-.9-4.5-2.7-5.4-5.1-1.1-2.5-.5-5.2-.7-7.9-.2-3.7 1.9-7.4 5.2-8.9zM174.2 346.1h69c.2 0 .6.1.8.1 0 2.9-.1 5.7 0 8.6-.7.2-1.5.1-2.2.1h-55.7c-.1 2.9 0 5.9 0 8.8 13.6.1 27.2 0 40.9 0 4.9.1 9.8-.2 14.7.1 0 2.8-.1 5.6 0 8.4-1.1.1-2.3.2-3.5.1h-52.1c.1 2.5-.2 5.1 1.1 7.4 1.3 2.2 4.2 2.5 6.5 2.6H244c.1 2.8 0 5.6 0 8.5-6.9.3-13.7 0-20.6.1h-35.5c-4.2-.3-8.5-1.9-11-5.4-2.2-3-2.8-6.9-2.8-10.5.1-9.6 0-19.2.1-28.9z"/>
  <path fill-rule="evenodd" d="M279.2 346.2c-10 .4-16.1 4.9-16.8 15.1l.1 30h11.9l.2-13.3 45.1.1v13.1h11.9v-45.1l-52.4.1zm-4.8 22.9c.1-2.2-1.9-14.1 7.2-14.1h38v14.2l-45.2-.1z"/>
</svg>
