<svg version="1.2" baseProfile="tiny" xmlns="http://www.w3.org/2000/svg" viewBox="0 0 500 500">
  <path d="M394.9 184.4c-18.3 0-35 6.4-48.2 17.1-13.1-10.7-29.9-17.1-48.2-17.1-18.3 0-35 6.4-48.2 17.1-13.1-10.7-29.9-17.1-48.2-17.1-18.3 0-35 6.4-48.2 17.1-13.1-10.7-29.9-17.1-48.2-17.1-42.2 0-76.4 34.2-76.4 76.5s34.2 76.5 76.4 76.5c18.3 0 35-6.4 48.2-17.1 13.1 10.7 29.9 17.1 48.2 17.1 18.3 0 35-6.4 48.2-17.1 13.1 10.7 29.9 17.1 48.2 17.1 18.3 0 35-6.4 48.2-17.1 13.1 10.7 29.9 17.1 48.2 17.1 42.2 0 76.4-34.2 76.4-76.5s-34.2-76.5-76.4-76.5zm-48.1 110.8c-6.9-9.7-11-21.5-11-34.4 0-12.8 4.1-24.7 11-34.4 6.9 9.7 11 21.5 11 34.4 0 12.9-4.1 24.7-11 34.4zm-96.4 0c-6.9-9.7-11-21.5-11-34.4 0-12.8 4.1-24.7 11-34.4 6.9 9.7 11 21.5 11 34.4 0 12.9-4 24.7-11 34.4zm-96.3 0c-6.9-9.7-11-21.5-11-34.4 0-12.8 4.1-24.7 11-34.4 6.9 9.7 11 21.5 11 34.4 0 12.9-4.1 24.7-11 34.4zM46.8 260.9c0-32.7 26.5-59.2 59.2-59.2 13.6 0 26 4.6 36 12.2-10.1 13-16.1 29.2-16.1 46.9s6 34 16.1 46.9c-10 7.7-22.5 12.2-36 12.2-32.7.1-59.2-26.4-59.2-59zm119.5 46.9c10.1-13 16.1-29.2 16.1-46.9s-6-34-16.1-46.9c10-7.7 22.5-12.2 36-12.2 13.6 0 26 4.6 36 12.2-10.1 13-16.1 29.2-16.1 46.9s6 34 16.1 46.9c-10 7.7-22.5 12.2-36 12.2-13.6 0-26.1-4.5-36-12.2zm96.3 0c10.1-13 16.1-29.2 16.1-46.9s-6-34-16.1-46.9c10-7.7 22.5-12.2 36-12.2 13.6 0 26 4.6 36 12.2-10.1 13-16.1 29.2-16.1 46.9s6 34 16.1 46.9c-10 7.7-22.5 12.2-36 12.2-13.6 0-26-4.5-36-12.2zM394.9 320c-13.6 0-26-4.6-36-12.2 10.1-13 16.1-29.2 16.1-46.9s-6-34-16.1-46.9c10-7.7 22.5-12.2 36-12.2 32.7 0 59.2 26.5 59.2 59.2s-26.5 59-59.2 59z"/>
</svg>
