<svg version="1.2" baseProfile="tiny" xmlns="http://www.w3.org/2000/svg" viewBox="0 0 500 500">
  <path d="M243.9 387.3c-69.2 0-126-57.2-126-126.4 0-15.6 2.7-30.3 8-44.1l73.7 148.4c1 2 2.1 3.5 4.5 3.5 2.3 0 3.6-1.6 4.5-3.5l33.8-76c.4-.8.8-1.6 1.6-1.6s1.2.8 1.6 1.6l33.8 76c.9 1.9 2.1 3.5 4.5 3.5 2.3 0 3.5-1.5 4.5-3.5l73.7-148.4c5.2 13.8 8 28.6 8 44.1-.2 69.2-57 126.4-126.2 126.4zm0-155c-.8 0-1.2-.8-1.6-1.6l-39.7-89.1c12.8-4.7 26.8-7.2 41.2-7.2 14.4 0 28.4 2.5 41.2 7.2l-39.7 89.1c-.3.8-.7 1.6-1.4 1.6zm-40.3 91.4c-.8 0-1.2-.8-1.6-1.6l-64.2-129.3c11.5-17.5 26.8-32.3 45.3-42.6l46.1 102.7c.8 1.9 1.9 2.3 3.5 2.3H255c1.6 0 2.7-.4 3.5-2.3l46.1-102.7c18.5 10.3 33.8 25.1 45.3 42.6l-64.2 129.3c-.4.8-.8 1.6-1.6 1.6s-1.2-.8-1.6-1.6l-24.1-55.2c-.8-1.9-1.9-2.3-3.5-2.3h-22.2c-1.6 0-2.7.4-3.5 2.3l-24.1 55.2c-.3.8-.7 1.6-1.5 1.6zm40.3 76.4c77 0 139.2-62.2 139.2-139.3 0-77-62.2-139.3-139.2-139.3-77 0-139.2 62.2-139.2 139.3-.1 77.1 62.2 139.3 139.2 139.3z"/>
</svg>
