<svg version="1.2" baseProfile="tiny" xmlns="http://www.w3.org/2000/svg" viewBox="0 0 500 500">
  <path d="M119.6 401.5c5.6.3 14.7.5 20 .5 23 0 25.7-.1 25.7-12.5 0-9.9-2.9-10.6-15.1-11l-14.1-.4c-6.5-.2-6.6-.9-6.6-3.8 0-3 .8-3 16.3-3 2.9 0 12.3.2 17.3.3.5 0 .8-.3.8-.8v-6.4c0-.5-.3-.8-.7-.8-4.9-.3-12.9-.5-18.7-.5-22.6 0-26.2.4-26.2 12.1 0 10 2.2 11.3 16.7 11.8l13 .4c6.1.2 6.2.9 6.2 3.2 0 3.1-.3 3.3-14.6 3.3-6.7 0-13.6-.3-19.9-.5-.5-.1-.8.2-.8.7v6.7c-.1.4.2.6.7.7m243.3-14H346l7.8-15.3h1.4l7.7 15.3zm-49.3-5.3v.5c0 9.8-.8 10.1-13.4 10.1h-10.4v-20.7h10.4c12.6 0 13.4.3 13.4 10.1m-54.7 0v.5c0 10.7-.4 10.8-12.9 10.8-12.4 0-12.9-.2-12.9-10.8v-.5c0-10.6.4-10.8 12.9-10.8 12.4 0 12.9.1 12.9 10.8m122.7 18.3l-18.2-36.4c-.2-.4-.5-.6-.9-.6h-16.1c-.4 0-.7.2-.9.6l-18.2 36.4c-.3.6 0 .9.6.9h10.5c.4 0 .7-.2.9-.6l2.7-5.4h24.9l2.7 5.4c.2.4.5.6.9.6H381c.6 0 .9-.3.6-.9m-81.5-37h-21c-.5 0-.8.3-.8.8v36.4c0 .5.3.8.8.8h21c22.5 0 25.5-1.1 25.5-18.8v-.3c0-17.8-3-18.9-25.5-18.9m-81.4 37l-21-20.5 19.7-15.6c.6-.4.4-.9-.4-.9h-12.9c-.4 0-.6.1-.9.4L183.1 380v-15.7c0-.5-.3-.8-.8-.8h-9.8c-.5 0-.8.3-.8.8v36.4c0 .5.3.8.8.8h9.8c.5 0 .8-.3.8-.8v-9.2l6-4.7 14.4 14.2c.3.3.6.4 1 .4h13.8c.7 0 .9-.4.4-.9m2.2-18.3v.5c0 18.4 3 19.5 25.1 19.5s25.1-1.1 25.1-19.6v-.5c0-18.4-3-19.5-25.1-19.5-22.1.1-25.1 1.2-25.1 19.6m-88.8-27.5l4.8 5.5c.3.3.5.4 1 .4H148c.4 0 .7-.1.9-.4l4.8-5.5c.4-.5.3-1-.4-1h-6.8c-.4 0-.7.2-1 .5l-2.1 3h-1.1l-2.1-3c-.3-.3-.5-.5-1-.5h-6.7c-.7 0-.9.5-.4 1M250 97.8c-62.9 0-113.9 51-113.9 113.9 0 62.9 51 113.9 113.9 113.9 62.9 0 113.9-51 113.9-113.9 0-62.9-51-113.9-113.9-113.9zm0 224.9c-61.3 0-111-49.7-111-111s49.7-111 111-111 111 49.7 111 111-49.7 111-111 111z"/>
  <path d="M250 108.5c-57 0-103.2 46.2-103.2 103.2S193 314.9 250 314.9s103.2-46.2 103.2-103.2S307 108.5 250 108.5zm0 197.2c-52 0-94.1-42.1-94.1-94.1 0-51.9 42.1-94.1 94.1-94.1 51.9 0 94.1 42.1 94.1 94.1 0 52-42.2 94.1-94.1 94.1z"/>
  <g>
    <path d="M321.5 256.7c-7-6.6-15.9-11-25.5-12.5-1.4-.2-2.6.8-2.6 2.2v3.5c0 1-.8 2.2-1.8 2.2h-2.3c-2.7 0-3.2-3.3-2.6-5.3 5.7-20.6 7.1-33.1 7.1-42.1-.1-9.7-.3-19.3-4.7-32-4.2-12.3-8-24.3-28.3-42.6-1.4-1.2-2.8-1.8-4.6-2-2-.1-3.6-.2-5.6-.2-8.4 0-16.5 1.2-24.2 3.5-2.9.9-2.4 2.9-.9 4.2 7.6 6.5 18 16.4 25.2 28.6-4.5.4-8-2.1-10.9-4.9-9.6-9.1-19.5-15.6-27.4-20-1.4-.8-2.7-1.1-4.1-.3-8.7 5.1-14.6 9.8-21.5 17.9-1.2 1.4-.4 2.4.7 3 7.6 4 19.4 11.6 30.3 21.5-2.2 1.9-5.7 1.3-10.8-1.4-9.8-5.1-19.2-8.1-26.3-9.9-1.5-.4-3.2 0-4 1.4-4.6 8-7.8 17.5-9.3 27.2-.3 1.9 1 3.5 2.8 3.8 16.7 2.9 46.5 10.8 51.4 45.1.4 3-2.3 5.6-5.9 4-5-2.4-10-4.7-15.1-7.1-.5-.2-1.1-.5-1.7-.5h-23.7c-3.4 0-4.7 3.2-2.6 5.7 5.7 6.6 10.9 13.6 15.4 21.1.4.7.8.9 1.6.9h10.3c.7 0 1.3-.2 1.9-.5 3.3-1.9 6.5-3.8 9.8-5.7.6-.4 1.2-.4 1.9-.4h77.9c1 0 1.9.7 1.9 1.7v3.8c0 1.4 1.2 2.4 2.6 2.2 9.7-1.5 18.5-5.9 25.5-12.5 1.2-.8 1.2-2.6.1-3.6zm-56.3-14.4c-5.8 0-10.5-4.7-10.5-10.5s4.7-10.5 10.5-10.5 10.5 4.7 10.5 10.5-4.7 10.5-10.5 10.5z"/>
  </g>
</svg>
